<svg version="1.1" id="Layer_1" xmlns="http://www.w3.org/2000/svg" xmlns:xlink="http://www.w3.org/1999/xlink" x="0px" y="0px"
	 width="100%" viewBox="0 0 1240 289" enable-background="new 0 0 1240 289" xml:space="preserve">
<path fill="#FFFEFE" opacity="1.000000" stroke="none" 
	d="
M855.000000,290.000000 
	C570.000000,290.000000 285.500000,290.000000 1.000000,290.000000 
	C1.000000,193.666672 1.000000,97.333336 1.000000,1.000000 
	C414.333344,1.000000 827.666687,1.000000 1241.000000,1.000000 
	C1241.000000,97.333336 1241.000000,193.666672 1241.000000,290.000000 
	C1112.500000,290.000000 984.000000,290.000000 855.000000,290.000000 
M971.499878,116.533928 
	C979.162720,116.538025 986.825562,116.551445 994.488403,116.543777 
	C1003.459412,116.534805 1005.822388,114.196678 1005.838013,105.398384 
	C1005.843933,102.067688 1005.856506,98.736000 1005.940186,95.406631 
	C1006.133667,87.707443 1003.383423,84.871193 995.634460,84.835144 
	C969.653625,84.714279 943.672729,84.592354 917.691956,84.457634 
	C916.238037,84.450096 914.784729,84.323959 913.141724,84.243790 
	C913.141724,76.756004 913.141724,69.541939 913.141724,62.001575 
	C915.245056,62.001575 917.048828,62.001556 918.852539,62.001579 
	C951.503296,62.001976 984.153992,62.013660 1016.804749,61.993847 
	C1023.859558,61.989567 1026.764893,59.044945 1026.827881,51.968723 
	C1026.861938,48.137547 1026.852173,44.305801 1026.836914,40.474411 
	C1026.805542,32.603180 1024.220215,30.002192 1016.381226,30.000923 
	C974.734863,29.994186 933.088501,29.996286 891.442139,29.998178 
	C882.713196,29.998573 880.170105,32.528137 880.167358,41.328556 
	C880.155212,80.975891 880.161560,120.623222 880.164124,160.270554 
	C880.164185,161.269409 880.101624,162.280670 880.229919,163.265045 
	C880.885864,168.295197 883.783691,170.978546 888.850403,171.151611 
	C891.845459,171.253891 894.846863,171.171204 897.845398,171.171158 
	C937.492737,171.170593 977.140015,171.179382 1016.787354,171.160583 
	C1023.965881,171.157181 1026.768921,168.350021 1026.830566,161.246246 
	C1026.862305,157.581635 1026.843750,153.916519 1026.837402,150.251663 
	C1026.822998,141.813248 1024.209595,139.170898 1015.838806,139.169617 
	C983.354675,139.164642 950.870483,139.167664 918.386353,139.167709 
	C916.628784,139.167709 914.871216,139.167709 913.191895,139.167709 
	C913.191895,131.237656 913.191895,123.992752 913.191895,116.533691 
	C932.529724,116.533691 951.514771,116.533691 971.499878,116.533928 
M326.499634,29.997572 
	C289.511841,29.997921 252.524063,29.993071 215.536270,30.002813 
	C207.732361,30.004869 205.162704,32.617748 205.161438,40.531898 
	C205.154999,80.685478 205.153625,120.839066 205.165558,160.992645 
	C205.167770,168.457474 207.869644,171.141922 215.415863,171.151031 
	C236.242371,171.176208 257.068909,171.169510 277.895447,171.170227 
	C299.221832,171.170959 320.548279,171.190094 341.874573,171.148697 
	C348.774506,171.135315 351.463257,168.367722 351.528839,161.442963 
	C351.563568,157.777786 351.548462,154.112061 351.543152,150.446609 
	C351.530212,141.552078 349.169525,139.170609 340.337646,139.169510 
	C308.014832,139.165482 275.692047,139.167755 243.369247,139.167633 
	C241.581741,139.167618 239.794235,139.167618 237.773285,139.167618 
	C237.773285,131.563568 237.773285,124.480751 237.773285,116.971443 
	C240.184372,116.820206 242.467453,116.555061 244.750839,116.552475 
	C269.909302,116.523941 295.067749,116.549339 320.226227,116.529610 
	C327.909210,116.523590 330.730713,113.693398 330.831146,105.979324 
	C330.878876,102.314491 330.871643,98.648071 330.827667,94.983109 
	C330.737854,87.491585 328.039001,84.834190 320.525269,84.832039 
	C294.866974,84.824692 269.208649,84.829948 243.550339,84.830391 
	C241.761993,84.830421 239.973648,84.830391 237.861938,84.830391 
	C237.861938,77.030930 237.861938,69.784058 237.861938,62.001400 
	C241.507492,62.001400 245.133118,62.001408 248.758759,62.001404 
	C279.748657,62.001385 310.738586,62.015160 341.728485,61.990643 
	C348.592255,61.985214 351.424713,59.168598 351.520233,52.343433 
	C351.585510,47.679222 351.645142,43.009987 351.504211,38.349133 
	C351.342285,32.995388 348.376709,30.119497 342.993835,30.018639 
	C337.830688,29.921900 332.664246,29.997635 326.499634,29.997572 
M1188.073486,46.458397 
	C1180.258911,36.684532 1170.204468,31.001272 1157.606934,30.848921 
	C1123.134033,30.432007 1088.658325,30.216635 1054.183105,30.053629 
	C1048.736450,30.027876 1045.857666,33.332573 1045.852539,39.110310 
	C1045.816528,80.261681 1045.819092,121.413124 1045.872437,162.564468 
	C1045.879761,168.197128 1048.780151,171.186234 1054.416382,171.473053 
	C1058.570801,171.684494 1062.744751,171.564194 1066.909058,171.518692 
	C1074.736572,171.433167 1077.481079,168.753006 1077.521851,161.016037 
	C1077.578003,150.353592 1077.537231,139.690659 1077.537842,129.027924 
	C1077.537964,126.951767 1077.537842,124.875610 1077.537842,122.570984 
	C1090.708496,122.570984 1103.070312,121.953316 1115.315674,122.877686 
	C1120.154053,123.242905 1125.629028,126.076088 1129.267334,129.452255 
	C1141.593384,140.890076 1153.053711,153.256470 1165.247803,164.843964 
	C1168.312744,167.756439 1172.760620,170.516327 1176.785278,170.859772 
	C1186.875244,171.720779 1197.087036,171.204269 1207.248657,171.104248 
	C1208.420410,171.092728 1210.413818,170.403687 1210.566772,169.708069 
	C1210.830200,168.508850 1210.317749,166.733078 1209.476929,165.770615 
	C1206.522339,162.388733 1203.382446,159.153259 1200.144897,156.036499 
	C1188.158569,144.497131 1176.105225,133.027374 1164.076904,121.531464 
	C1166.458740,119.549713 1167.690063,119.184151 1168.905151,118.770546 
	C1175.736084,116.445412 1182.220337,113.574547 1187.073853,107.900940 
	C1201.700562,90.802834 1202.301514,66.283623 1188.073486,46.458397 
M680.969299,31.160110 
	C678.702148,30.774305 676.436218,30.061497 674.167664,30.053217 
	C651.168457,29.969254 628.168884,29.999969 605.169373,29.999237 
	C585.669800,29.998617 566.170227,29.975391 546.670715,30.011448 
	C539.745239,30.024252 536.944763,32.817513 536.844971,39.659031 
	C536.791504,43.324825 536.831482,46.992065 536.837830,50.658642 
	C536.853699,59.804291 539.172791,62.171661 548.339111,62.160896 
	C573.503784,62.131336 598.668457,62.057022 623.833130,62.001171 
	C625.398071,61.997696 626.963013,62.000717 629.471558,62.000717 
	C627.432251,63.855808 626.248169,64.966454 625.028931,66.037056 
	C598.623840,89.223320 572.374878,112.591606 545.705750,135.470230 
	C538.048523,142.039185 534.628174,149.470505 535.073669,159.393005 
	C535.504944,168.996735 537.615662,171.463776 547.285889,171.465256 
	C590.451599,171.471893 633.617249,171.468628 676.782959,171.466492 
	C677.948975,171.466446 679.122986,171.521225 680.279724,171.409927 
	C685.407654,170.916473 688.049438,168.122803 688.145935,162.947739 
	C688.232849,158.282776 688.175232,153.614929 688.162842,148.948395 
	C688.142517,141.297012 685.706116,138.845032 677.995667,138.840378 
	C650.829590,138.824005 623.663574,138.833923 596.497498,138.833893 
	C594.903625,138.833893 593.309753,138.833908 591.715820,138.833908 
	C591.428650,138.398544 591.141418,137.963181 590.854248,137.527817 
	C592.054932,136.728668 593.362488,136.051926 594.439575,135.111252 
	C603.721619,127.005127 612.964661,118.854195 622.214478,110.711227 
	C640.839905,94.314674 659.515686,77.974724 678.061707,61.488831 
	C686.367004,54.106121 688.034241,38.906509 680.969299,31.160110 
M182.425781,33.312523 
	C179.782684,32.207325 177.219238,30.501631 174.477768,30.137920 
	C170.383652,29.594759 166.164108,29.983494 161.998001,29.999588 
	C154.234558,30.029579 151.504822,32.716354 151.477951,40.530396 
	C151.433838,53.362019 151.471420,66.193909 151.450470,79.025642 
	C151.447632,80.771065 151.305939,82.516258 151.232208,84.178726 
	C121.469597,84.178726 92.376015,84.178726 62.833565,84.178726 
	C62.833565,82.269035 62.833523,80.639977 62.833569,79.010925 
	C62.833939,66.012505 62.877171,53.013885 62.817707,40.015736 
	C62.785069,32.881561 59.873581,30.028662 52.850609,30.000988 
	C48.184586,29.982601 43.517902,29.954094 38.852455,30.009563 
	C32.867165,30.080725 30.023163,32.876881 30.018206,38.932430 
	C29.984501,80.094070 29.986250,121.255760 30.015076,162.417404 
	C30.019182,168.281952 32.967735,171.311752 38.887512,171.500336 
	C43.715263,171.654160 48.555294,171.640869 53.383842,171.497818 
	C59.809361,171.307449 62.769588,168.299652 62.811863,161.792007 
	C62.897381,148.627502 62.835033,135.462036 62.833717,122.296974 
	C62.833538,120.511894 62.833691,118.726822 62.833691,116.898125 
	C92.613228,116.898125 121.829994,116.898125 151.459152,116.898125 
	C151.459152,119.059334 151.459122,120.860741 151.459152,122.662148 
	C151.459366,135.660568 151.411499,148.659225 151.479523,161.657303 
	C151.514984,168.433624 154.447601,171.358734 161.209320,171.507431 
	C165.540024,171.602676 169.876541,171.610580 174.206833,171.506256 
	C181.317551,171.334915 183.994598,168.499680 183.996109,161.256424 
	C184.004456,120.927979 184.016785,80.599518 183.953094,40.271175 
	C183.949783,38.174576 183.261642,36.079060 182.425781,33.312523 
M749.516113,62.001400 
	C767.845032,62.002132 786.174011,61.962841 804.502747,62.016045 
	C819.654297,62.060024 828.426331,70.831505 828.461182,85.869652 
	C828.485596,96.367172 828.466492,106.864792 828.466248,117.362366 
	C828.465942,131.525757 828.455505,145.689178 828.468079,159.852554 
	C828.476135,168.966248 830.631653,171.158401 839.519653,171.166565 
	C843.352112,171.170090 847.184570,171.171585 851.017029,171.164490 
	C859.515076,171.148743 861.992493,168.703461 861.997070,160.211105 
	C862.011108,134.217102 862.053345,108.222916 861.958130,82.229271 
	C861.939270,77.089058 861.776733,71.883156 860.960266,66.823746 
	C857.714783,46.710766 839.853088,30.199993 820.710632,30.070145 
	C785.220459,29.829407 749.727539,29.976713 714.235718,30.018417 
	C708.054321,30.025682 705.016663,33.096943 705.012756,39.210484 
	C704.986694,80.201004 704.987732,121.191551 705.014221,162.182068 
	C705.018066,168.155914 707.711426,171.084641 713.732544,171.429611 
	C718.217285,171.686554 722.726746,171.546738 727.224976,171.526779 
	C735.889038,171.488327 738.532471,168.840225 738.535217,160.178009 
	C738.544983,129.518417 738.538574,98.858833 738.538330,68.199249 
	C738.538269,66.264046 738.538330,64.328842 738.538330,62.001404 
	C742.249268,62.001404 745.386353,62.001404 749.516113,62.001400 
M482.500000,29.998489 
	C451.019073,29.998489 419.538147,29.998489 388.057220,29.998491 
	C384.725922,29.998493 381.393250,29.937889 378.063568,30.011555 
	C371.736572,30.151535 368.928894,32.948021 368.847595,39.159969 
	C368.797485,42.990341 368.833771,46.821869 368.833923,50.652878 
	C368.834320,60.005875 370.833557,62.000374 380.205688,62.000473 
	C395.985138,62.000645 411.764618,62.000523 427.999298,62.000523 
	C427.999298,64.208588 427.999268,65.993988 427.999268,67.779388 
	C427.999603,99.093727 427.985535,130.408081 428.011810,161.722397 
	C428.017395,168.387497 430.768860,171.114548 437.350433,171.159775 
	C441.847534,171.190674 446.344971,171.175568 450.842224,171.166702 
	C459.443726,171.149734 461.825562,168.808533 461.828522,160.278931 
	C461.839203,129.464279 461.832886,98.649635 461.832947,67.834991 
	C461.832977,66.047417 461.832947,64.259842 461.832947,62.000587 
	C463.884674,62.000587 465.505157,62.000591 467.125610,62.000591 
	C481.450256,62.000576 495.774933,62.017891 510.099548,61.992966 
	C516.894531,61.981140 519.739014,59.130211 519.823425,52.281113 
	C519.874817,48.117641 519.882080,43.952263 519.820251,39.789062 
	C519.720642,33.086693 516.723999,30.070038 509.983826,30.016718 
	C501.156403,29.946884 492.327972,29.998892 482.500000,29.998489 
M642.500000,259.666443 
	C657.762573,259.666443 673.025146,259.666443 688.285156,259.666443 
	C688.285156,256.519989 688.285156,254.122375 688.285156,251.685715 
	C468.682831,251.685715 249.461731,251.685715 30.280399,251.685715 
	C30.280399,254.463028 30.280399,256.873871 30.280399,259.666107 
	C234.242798,259.666107 437.871399,259.666107 642.500000,259.666443 
M759.260498,206.000793 
	C746.147339,205.928680 733.014648,205.391495 719.927429,205.939453 
	C710.369873,206.339630 705.514648,211.777130 705.038940,221.360764 
	C704.652283,229.153061 704.634216,237.000305 705.077148,244.787674 
	C705.607422,254.112961 711.609253,259.766205 720.975708,259.952301 
	C732.777588,260.186859 744.591675,260.191956 756.393066,259.943756 
	C765.404846,259.754303 771.269165,254.531326 771.929565,245.591782 
	C772.539001,237.342056 772.417847,229.001801 772.047668,220.726974 
	C771.708740,213.150024 767.735352,207.978409 759.260498,206.000793 
M956.315613,258.667938 
	C956.315613,245.875031 956.315613,233.082138 956.315613,220.289230 
	C969.845642,231.801025 982.377441,243.034088 993.945190,255.185028 
	C999.565735,261.088928 1005.414673,259.191223 1011.602600,259.403046 
	C1011.602600,241.327850 1011.602600,223.901367 1011.602600,206.324005 
	C1007.969788,206.324005 1004.599731,206.324005 1000.743713,206.324005 
	C1000.743713,219.669052 1000.743713,232.682938 1000.743713,246.475784 
	C988.586365,234.792328 976.733337,224.072235 965.724670,212.545670 
	C960.008423,206.560593 953.987122,204.691437 946.098145,206.484055 
	C946.098145,223.983765 946.098145,241.530243 946.098145,259.291718 
	C949.478210,259.291718 952.593140,259.291718 956.315613,258.667938 
M1043.500977,259.603241 
	C1054.918945,259.603241 1066.336792,259.603241 1077.661133,259.603241 
	C1077.661133,255.956039 1077.661133,253.060547 1077.661133,249.735016 
	C1063.557739,249.735016 1049.816162,249.735016 1036.253174,249.735016 
	C1036.253174,245.216965 1036.253174,241.150208 1036.253174,236.591095 
	C1049.694946,236.591095 1062.756226,236.591095 1075.631348,236.591095 
	C1075.631348,233.177704 1075.631348,230.276215 1075.631348,226.874146 
	C1062.185059,226.874146 1049.126221,226.874146 1036.167480,226.874146 
	C1036.167480,222.913300 1036.167480,219.480652 1036.167480,215.440826 
	C1050.169800,215.440826 1063.882935,215.440826 1077.631958,215.440826 
	C1077.631958,212.044067 1077.631958,209.269516 1077.631958,206.376678 
	C1060.050171,206.376678 1042.708374,206.376678 1025.393311,206.376678 
	C1025.393311,224.197189 1025.393311,241.616898 1025.393311,259.602936 
	C1031.263672,259.602936 1036.882812,259.602936 1043.500977,259.603241 
M834.205322,241.341293 
	C823.884949,231.433090 813.068420,221.978607 803.434387,211.442825 
	C797.850464,205.336288 791.896729,205.695709 785.194763,206.288284 
	C785.194763,224.139648 785.194763,241.670059 785.194763,259.259338 
	C788.653564,259.259338 791.737488,259.259338 795.301147,259.259338 
	C795.301147,245.924484 795.301147,232.897217 795.301147,219.055862 
	C797.047241,220.648224 798.140442,221.602325 799.186462,222.605652 
	C810.470764,233.429352 822.042786,243.975433 832.903076,255.209518 
	C838.404419,260.900238 844.299927,259.619171 850.581299,259.179230 
	C850.581299,241.272827 850.581299,223.859070 850.581299,206.346909 
	C846.933716,206.346909 843.565491,206.346909 839.721375,206.346909 
	C839.721375,219.703140 839.721375,232.710297 839.721375,246.260132 
	C837.690857,244.459946 836.208679,243.145828 834.205322,241.341293 
M1102.583984,259.666840 
	C1138.631714,259.666840 1174.679443,259.666840 1210.774902,259.666840 
	C1210.774902,256.638245 1210.774902,254.217178 1210.774902,251.661499 
	C1171.824585,251.661499 1133.156494,251.661499 1094.411133,251.661499 
	C1094.411133,254.399384 1094.411133,256.799805 1094.411133,259.666565 
	C1097.027100,259.666565 1099.322388,259.666565 1102.583984,259.666840 
M864.758545,206.112671 
	C864.500183,207.688904 864.029846,209.263596 864.018250,210.841644 
	C863.948242,220.340439 863.983398,229.839996 863.983337,239.339310 
	C863.983337,245.946381 863.983337,252.553436 863.983337,259.280212 
	C880.639343,259.280212 896.719910,259.280212 912.838745,259.280212 
	C912.838745,256.061920 912.838745,253.166779 912.838745,249.858490 
	C900.078308,249.858490 887.653259,249.858490 874.699280,249.858490 
	C874.699280,235.040680 874.699280,220.640884 874.699280,206.002304 
	C871.339844,206.002304 868.519653,206.002304 864.758545,206.112671 
M921.142883,215.546112 
	C921.142883,230.089401 921.142883,244.632675 921.142883,259.315002 
	C925.100647,259.315002 928.349487,259.315002 931.792114,259.315002 
	C931.792114,241.508148 931.792114,223.977173 931.792114,206.326630 
	C928.197266,206.326630 924.833984,206.326630 921.142944,206.326630 
	C921.142944,209.298737 921.142944,211.930588 921.142883,215.546112 
z"/>
<path fill="#D0023B" opacity="1.000000" stroke="none" 
	d="
M970.999878,116.533813 
	C951.514771,116.533691 932.529724,116.533691 913.191895,116.533691 
	C913.191895,123.992752 913.191895,131.237656 913.191895,139.167709 
	C914.871216,139.167709 916.628784,139.167709 918.386353,139.167709 
	C950.870483,139.167664 983.354675,139.164642 1015.838806,139.169617 
	C1024.209595,139.170898 1026.822998,141.813248 1026.837402,150.251663 
	C1026.843750,153.916519 1026.862305,157.581635 1026.830566,161.246246 
	C1026.768921,168.350021 1023.965881,171.157181 1016.787354,171.160583 
	C977.140015,171.179382 937.492737,171.170593 897.845398,171.171158 
	C894.846863,171.171204 891.845459,171.253891 888.850403,171.151611 
	C883.783691,170.978546 880.885864,168.295197 880.229919,163.265045 
	C880.101624,162.280670 880.164185,161.269409 880.164124,160.270554 
	C880.161560,120.623222 880.155212,80.975891 880.167358,41.328556 
	C880.170105,32.528137 882.713196,29.998573 891.442139,29.998178 
	C933.088501,29.996286 974.734863,29.994186 1016.381226,30.000923 
	C1024.220215,30.002192 1026.805542,32.603180 1026.836914,40.474411 
	C1026.852173,44.305801 1026.861938,48.137547 1026.827881,51.968723 
	C1026.764893,59.044945 1023.859558,61.989567 1016.804749,61.993847 
	C984.153992,62.013660 951.503296,62.001976 918.852539,62.001579 
	C917.048828,62.001556 915.245056,62.001575 913.141724,62.001575 
	C913.141724,69.541939 913.141724,76.756004 913.141724,84.243790 
	C914.784729,84.323959 916.238037,84.450096 917.691956,84.457634 
	C943.672729,84.592354 969.653625,84.714279 995.634460,84.835144 
	C1003.383423,84.871193 1006.133667,87.707443 1005.940186,95.406631 
	C1005.856506,98.736000 1005.843933,102.067688 1005.838013,105.398384 
	C1005.822388,114.196678 1003.459412,116.534805 994.488403,116.543777 
	C986.825562,116.551445 979.162720,116.538025 970.999878,116.533813 
z"/>
<path fill="#D0023B" opacity="1.000000" stroke="none" 
	d="
M326.999451,29.997572 
	C332.664246,29.997635 337.830688,29.921900 342.993835,30.018639 
	C348.376709,30.119497 351.342285,32.995388 351.504211,38.349133 
	C351.645142,43.009987 351.585510,47.679222 351.520233,52.343433 
	C351.424713,59.168598 348.592255,61.985214 341.728485,61.990643 
	C310.738586,62.015160 279.748657,62.001385 248.758759,62.001404 
	C245.133118,62.001408 241.507492,62.001400 237.861938,62.001400 
	C237.861938,69.784058 237.861938,77.030930 237.861938,84.830391 
	C239.973648,84.830391 241.761993,84.830421 243.550339,84.830391 
	C269.208649,84.829948 294.866974,84.824692 320.525269,84.832039 
	C328.039001,84.834190 330.737854,87.491585 330.827667,94.983109 
	C330.871643,98.648071 330.878876,102.314491 330.831146,105.979324 
	C330.730713,113.693398 327.909210,116.523590 320.226227,116.529610 
	C295.067749,116.549339 269.909302,116.523941 244.750839,116.552475 
	C242.467453,116.555061 240.184372,116.820206 237.773285,116.971443 
	C237.773285,124.480751 237.773285,131.563568 237.773285,139.167618 
	C239.794235,139.167618 241.581741,139.167618 243.369247,139.167633 
	C275.692047,139.167755 308.014832,139.165482 340.337646,139.169510 
	C349.169525,139.170609 351.530212,141.552078 351.543152,150.446609 
	C351.548462,154.112061 351.563568,157.777786 351.528839,161.442963 
	C351.463257,168.367722 348.774506,171.135315 341.874573,171.148697 
	C320.548279,171.190094 299.221832,171.170959 277.895447,171.170227 
	C257.068909,171.169510 236.242371,171.176208 215.415863,171.151031 
	C207.869644,171.141922 205.167770,168.457474 205.165558,160.992645 
	C205.153625,120.839066 205.154999,80.685478 205.161438,40.531898 
	C205.162704,32.617748 207.732361,30.004869 215.536270,30.002813 
	C252.524063,29.993071 289.511841,29.997921 326.999451,29.997572 
z"/>
<path fill="#D0023B" opacity="1.000000" stroke="none" 
	d="
M1188.295898,46.736572 
	C1202.301514,66.283623 1201.700562,90.802834 1187.073853,107.900940 
	C1182.220337,113.574547 1175.736084,116.445412 1168.905151,118.770546 
	C1167.690063,119.184151 1166.458740,119.549713 1164.076904,121.531464 
	C1176.105225,133.027374 1188.158569,144.497131 1200.144897,156.036499 
	C1203.382446,159.153259 1206.522339,162.388733 1209.476929,165.770615 
	C1210.317749,166.733078 1210.830200,168.508850 1210.566772,169.708069 
	C1210.413818,170.403687 1208.420410,171.092728 1207.248657,171.104248 
	C1197.087036,171.204269 1186.875244,171.720779 1176.785278,170.859772 
	C1172.760620,170.516327 1168.312744,167.756439 1165.247803,164.843964 
	C1153.053711,153.256470 1141.593384,140.890076 1129.267334,129.452255 
	C1125.629028,126.076088 1120.154053,123.242905 1115.315674,122.877686 
	C1103.070312,121.953316 1090.708496,122.570984 1077.537842,122.570984 
	C1077.537842,124.875610 1077.537964,126.951767 1077.537842,129.027924 
	C1077.537231,139.690659 1077.578003,150.353592 1077.521851,161.016037 
	C1077.481079,168.753006 1074.736572,171.433167 1066.909058,171.518692 
	C1062.744751,171.564194 1058.570801,171.684494 1054.416382,171.473053 
	C1048.780151,171.186234 1045.879761,168.197128 1045.872437,162.564468 
	C1045.819092,121.413124 1045.816528,80.261681 1045.852539,39.110310 
	C1045.857666,33.332573 1048.736450,30.027876 1054.183105,30.053629 
	C1088.658325,30.216635 1123.134033,30.432007 1157.606934,30.848921 
	C1170.204468,31.001272 1180.258911,36.684532 1188.295898,46.736572 
M1077.456665,74.527130 
	C1077.456665,79.810158 1077.456665,85.093185 1077.456665,90.104836 
	C1078.351562,90.505043 1078.642822,90.749748 1078.933594,90.749046 
	C1104.055908,90.687943 1129.178345,90.643845 1154.300171,90.496178 
	C1158.850220,90.469444 1162.189941,88.055649 1164.269409,84.075203 
	C1169.958618,73.184776 1163.364380,62.023987 1151.236694,62.002060 
	C1133.762939,61.970467 1116.289307,61.993824 1098.815552,61.993755 
	C1091.878296,61.993729 1084.941040,61.993755 1077.457031,61.993755 
	C1077.457031,66.295395 1077.457031,69.919334 1077.456665,74.527130 
z"/>
<path fill="#D0013B" opacity="1.000000" stroke="none" 
	d="
M681.298828,31.400614 
	C688.034241,38.906509 686.367004,54.106121 678.061707,61.488831 
	C659.515686,77.974724 640.839905,94.314674 622.214478,110.711227 
	C612.964661,118.854195 603.721619,127.005127 594.439575,135.111252 
	C593.362488,136.051926 592.054932,136.728668 590.854248,137.527817 
	C591.141418,137.963181 591.428650,138.398544 591.715820,138.833908 
	C593.309753,138.833908 594.903625,138.833893 596.497498,138.833893 
	C623.663574,138.833923 650.829590,138.824005 677.995667,138.840378 
	C685.706116,138.845032 688.142517,141.297012 688.162842,148.948395 
	C688.175232,153.614929 688.232849,158.282776 688.145935,162.947739 
	C688.049438,168.122803 685.407654,170.916473 680.279724,171.409927 
	C679.122986,171.521225 677.948975,171.466446 676.782959,171.466492 
	C633.617249,171.468628 590.451599,171.471893 547.285889,171.465256 
	C537.615662,171.463776 535.504944,168.996735 535.073669,159.393005 
	C534.628174,149.470505 538.048523,142.039185 545.705750,135.470230 
	C572.374878,112.591606 598.623840,89.223320 625.028931,66.037056 
	C626.248169,64.966454 627.432251,63.855808 629.471558,62.000717 
	C626.963013,62.000717 625.398071,61.997696 623.833130,62.001171 
	C598.668457,62.057022 573.503784,62.131336 548.339111,62.160896 
	C539.172791,62.171661 536.853699,59.804291 536.837830,50.658642 
	C536.831482,46.992065 536.791504,43.324825 536.844971,39.659031 
	C536.944763,32.817513 539.745239,30.024252 546.670715,30.011448 
	C566.170227,29.975391 585.669800,29.998617 605.169373,29.999237 
	C628.168884,29.999969 651.168457,29.969254 674.167664,30.053217 
	C676.436218,30.061497 678.702148,30.774305 681.298828,31.400614 
z"/>
<path fill="#D0023C" opacity="1.000000" stroke="none" 
	d="
M182.659058,33.647781 
	C183.261642,36.079060 183.949783,38.174576 183.953094,40.271175 
	C184.016785,80.599518 184.004456,120.927979 183.996109,161.256424 
	C183.994598,168.499680 181.317551,171.334915 174.206833,171.506256 
	C169.876541,171.610580 165.540024,171.602676 161.209320,171.507431 
	C154.447601,171.358734 151.514984,168.433624 151.479523,161.657303 
	C151.411499,148.659225 151.459366,135.660568 151.459152,122.662148 
	C151.459122,120.860741 151.459152,119.059334 151.459152,116.898125 
	C121.829994,116.898125 92.613228,116.898125 62.833691,116.898125 
	C62.833691,118.726822 62.833538,120.511894 62.833717,122.296974 
	C62.835033,135.462036 62.897381,148.627502 62.811863,161.792007 
	C62.769588,168.299652 59.809361,171.307449 53.383842,171.497818 
	C48.555294,171.640869 43.715263,171.654160 38.887512,171.500336 
	C32.967735,171.311752 30.019182,168.281952 30.015076,162.417404 
	C29.986250,121.255760 29.984501,80.094070 30.018206,38.932430 
	C30.023163,32.876881 32.867165,30.080725 38.852455,30.009563 
	C43.517902,29.954094 48.184586,29.982601 52.850609,30.000988 
	C59.873581,30.028662 62.785069,32.881561 62.817707,40.015736 
	C62.877171,53.013885 62.833939,66.012505 62.833569,79.010925 
	C62.833523,80.639977 62.833565,82.269035 62.833565,84.178726 
	C92.376015,84.178726 121.469597,84.178726 151.232208,84.178726 
	C151.305939,82.516258 151.447632,80.771065 151.450470,79.025642 
	C151.471420,66.193909 151.433838,53.362019 151.477951,40.530396 
	C151.504822,32.716354 154.234558,30.029579 161.998001,29.999588 
	C166.164108,29.983494 170.383652,29.594759 174.477768,30.137920 
	C177.219238,30.501631 179.782684,32.207325 182.659058,33.647781 
z"/>
<path fill="#D0023B" opacity="1.000000" stroke="none" 
	d="
M749.019775,62.001404 
	C745.386353,62.001404 742.249268,62.001404 738.538330,62.001404 
	C738.538330,64.328842 738.538269,66.264046 738.538330,68.199249 
	C738.538574,98.858833 738.544983,129.518417 738.535217,160.178009 
	C738.532471,168.840225 735.889038,171.488327 727.224976,171.526779 
	C722.726746,171.546738 718.217285,171.686554 713.732544,171.429611 
	C707.711426,171.084641 705.018066,168.155914 705.014221,162.182068 
	C704.987732,121.191551 704.986694,80.201004 705.012756,39.210484 
	C705.016663,33.096943 708.054321,30.025682 714.235718,30.018417 
	C749.727539,29.976713 785.220459,29.829407 820.710632,30.070145 
	C839.853088,30.199993 857.714783,46.710766 860.960266,66.823746 
	C861.776733,71.883156 861.939270,77.089058 861.958130,82.229271 
	C862.053345,108.222916 862.011108,134.217102 861.997070,160.211105 
	C861.992493,168.703461 859.515076,171.148743 851.017029,171.164490 
	C847.184570,171.171585 843.352112,171.170090 839.519653,171.166565 
	C830.631653,171.158401 828.476135,168.966248 828.468079,159.852554 
	C828.455505,145.689178 828.465942,131.525757 828.466248,117.362366 
	C828.466492,106.864792 828.485596,96.367172 828.461182,85.869652 
	C828.426331,70.831505 819.654297,62.060024 804.502747,62.016045 
	C786.174011,61.962841 767.845032,62.002132 749.019775,62.001404 
z"/>
<path fill="#D0013B" opacity="1.000000" stroke="none" 
	d="
M483.000000,29.998489 
	C492.327972,29.998892 501.156403,29.946884 509.983826,30.016718 
	C516.723999,30.070038 519.720642,33.086693 519.820251,39.789062 
	C519.882080,43.952263 519.874817,48.117641 519.823425,52.281113 
	C519.739014,59.130211 516.894531,61.981140 510.099548,61.992966 
	C495.774933,62.017891 481.450256,62.000576 467.125610,62.000591 
	C465.505157,62.000591 463.884674,62.000587 461.832947,62.000587 
	C461.832947,64.259842 461.832977,66.047417 461.832947,67.834991 
	C461.832886,98.649635 461.839203,129.464279 461.828522,160.278931 
	C461.825562,168.808533 459.443726,171.149734 450.842224,171.166702 
	C446.344971,171.175568 441.847534,171.190674 437.350433,171.159775 
	C430.768860,171.114548 428.017395,168.387497 428.011810,161.722397 
	C427.985535,130.408081 427.999603,99.093727 427.999268,67.779388 
	C427.999268,65.993988 427.999298,64.208588 427.999298,62.000523 
	C411.764618,62.000523 395.985138,62.000645 380.205688,62.000473 
	C370.833557,62.000374 368.834320,60.005875 368.833923,50.652878 
	C368.833771,46.821869 368.797485,42.990341 368.847595,39.159969 
	C368.928894,32.948021 371.736572,30.151535 378.063568,30.011555 
	C381.393250,29.937889 384.725922,29.998493 388.057220,29.998491 
	C419.538147,29.998489 451.019073,29.998489 483.000000,29.998489 
z"/>
<path fill="#6B6B6C" opacity="1.000000" stroke="none" 
	d="
M642.000000,259.666260 
	C437.871399,259.666107 234.242798,259.666107 30.280399,259.666107 
	C30.280399,256.873871 30.280399,254.463028 30.280399,251.685715 
	C249.461731,251.685715 468.682831,251.685715 688.285156,251.685715 
	C688.285156,254.122375 688.285156,256.519989 688.285156,259.666443 
	C673.025146,259.666443 657.762573,259.666443 642.000000,259.666260 
z"/>
<path fill="#5E5E60" opacity="1.000000" stroke="none" 
	d="
M759.667480,206.057663 
	C767.735352,207.978409 771.708740,213.150024 772.047668,220.726974 
	C772.417847,229.001801 772.539001,237.342056 771.929565,245.591782 
	C771.269165,254.531326 765.404846,259.754303 756.393066,259.943756 
	C744.591675,260.191956 732.777588,260.186859 720.975708,259.952301 
	C711.609253,259.766205 705.607422,254.112961 705.077148,244.787674 
	C704.634216,237.000305 704.652283,229.153061 705.038940,221.360764 
	C705.514648,211.777130 710.369873,206.339630 719.927429,205.939453 
	C733.014648,205.391495 746.147339,205.928680 759.667480,206.057663 
M758.077148,216.100540 
	C745.821472,215.833755 733.563721,215.333420 721.311340,215.441513 
	C717.601746,215.474243 715.635986,218.582916 715.624451,222.447357 
	C715.604187,229.271042 715.475281,236.098251 715.649353,242.917419 
	C715.778931,247.995590 717.934509,250.231659 723.093201,250.325958 
	C733.408630,250.514542 743.735352,250.553558 754.044678,250.237793 
	C756.233765,250.170776 759.005005,248.852829 760.394836,247.184067 
	C763.247986,243.758270 762.233826,220.838181 759.574707,217.114960 
	C759.388672,216.854553 759.066162,216.691620 758.077148,216.100540 
z"/>
<path fill="#5D5D5F" opacity="1.000000" stroke="none" 
	d="
M956.011841,258.979828 
	C952.593140,259.291718 949.478210,259.291718 946.098145,259.291718 
	C946.098145,241.530243 946.098145,223.983765 946.098145,206.484055 
	C953.987122,204.691437 960.008423,206.560593 965.724670,212.545670 
	C976.733337,224.072235 988.586365,234.792328 1000.743713,246.475784 
	C1000.743713,232.682938 1000.743713,219.669052 1000.743713,206.324005 
	C1004.599731,206.324005 1007.969788,206.324005 1011.602600,206.324005 
	C1011.602600,223.901367 1011.602600,241.327850 1011.602600,259.403046 
	C1005.414673,259.191223 999.565735,261.088928 993.945190,255.185028 
	C982.377441,243.034088 969.845642,231.801025 956.315613,220.289230 
	C956.315613,233.082138 956.315613,245.875031 956.011841,258.979828 
z"/>
<path fill="#606062" opacity="1.000000" stroke="none" 
	d="
M1043.001465,259.603088 
	C1036.882812,259.602936 1031.263672,259.602936 1025.393311,259.602936 
	C1025.393311,241.616898 1025.393311,224.197189 1025.393311,206.376678 
	C1042.708374,206.376678 1060.050171,206.376678 1077.631958,206.376678 
	C1077.631958,209.269516 1077.631958,212.044067 1077.631958,215.440826 
	C1063.882935,215.440826 1050.169800,215.440826 1036.167480,215.440826 
	C1036.167480,219.480652 1036.167480,222.913300 1036.167480,226.874146 
	C1049.126221,226.874146 1062.185059,226.874146 1075.631348,226.874146 
	C1075.631348,230.276215 1075.631348,233.177704 1075.631348,236.591095 
	C1062.756226,236.591095 1049.694946,236.591095 1036.253174,236.591095 
	C1036.253174,241.150208 1036.253174,245.216965 1036.253174,249.735016 
	C1049.816162,249.735016 1063.557739,249.735016 1077.661133,249.735016 
	C1077.661133,253.060547 1077.661133,255.956039 1077.661133,259.603241 
	C1066.336792,259.603241 1054.918945,259.603241 1043.001465,259.603088 
z"/>
<path fill="#5B5B5D" opacity="1.000000" stroke="none" 
	d="
M834.465881,241.586517 
	C836.208679,243.145828 837.690857,244.459946 839.721375,246.260132 
	C839.721375,232.710297 839.721375,219.703140 839.721375,206.346909 
	C843.565491,206.346909 846.933716,206.346909 850.581299,206.346909 
	C850.581299,223.859070 850.581299,241.272827 850.581299,259.179230 
	C844.299927,259.619171 838.404419,260.900238 832.903076,255.209518 
	C822.042786,243.975433 810.470764,233.429352 799.186462,222.605652 
	C798.140442,221.602325 797.047241,220.648224 795.301147,219.055862 
	C795.301147,232.897217 795.301147,245.924484 795.301147,259.259338 
	C791.737488,259.259338 788.653564,259.259338 785.194763,259.259338 
	C785.194763,241.670059 785.194763,224.139648 785.194763,206.288284 
	C791.896729,205.695709 797.850464,205.336288 803.434387,211.442825 
	C813.068420,221.978607 823.884949,231.433090 834.465881,241.586517 
z"/>
<path fill="#6B6B6C" opacity="1.000000" stroke="none" 
	d="
M1102.100830,259.666687 
	C1099.322388,259.666565 1097.027100,259.666565 1094.411133,259.666565 
	C1094.411133,256.799805 1094.411133,254.399384 1094.411133,251.661499 
	C1133.156494,251.661499 1171.824585,251.661499 1210.774902,251.661499 
	C1210.774902,254.217178 1210.774902,256.638245 1210.774902,259.666840 
	C1174.679443,259.666840 1138.631714,259.666840 1102.100830,259.666687 
z"/>
<path fill="#5E5E60" opacity="1.000000" stroke="none" 
	d="
M865.229004,206.057495 
	C868.519653,206.002304 871.339844,206.002304 874.699280,206.002304 
	C874.699280,220.640884 874.699280,235.040680 874.699280,249.858490 
	C887.653259,249.858490 900.078308,249.858490 912.838745,249.858490 
	C912.838745,253.166779 912.838745,256.061920 912.838745,259.280212 
	C896.719910,259.280212 880.639343,259.280212 863.983337,259.280212 
	C863.983337,252.553436 863.983337,245.946381 863.983337,239.339310 
	C863.983398,229.839996 863.948242,220.340439 864.018250,210.841644 
	C864.029846,209.263596 864.500183,207.688904 865.229004,206.057495 
z"/>
<path fill="#5E5E60" opacity="1.000000" stroke="none" 
	d="
M921.142944,215.054276 
	C921.142944,211.930588 921.142944,209.298737 921.142944,206.326630 
	C924.833984,206.326630 928.197266,206.326630 931.792114,206.326630 
	C931.792114,223.977173 931.792114,241.508148 931.792114,259.315002 
	C928.349487,259.315002 925.100647,259.315002 921.142883,259.315002 
	C921.142883,244.632675 921.142883,230.089401 921.142944,215.054276 
z"/>
<path fill="#FEFAFB" opacity="1.000000" stroke="none" 
	d="
M1077.456787,74.035202 
	C1077.457031,69.919334 1077.457031,66.295395 1077.457031,61.993755 
	C1084.941040,61.993755 1091.878296,61.993729 1098.815552,61.993755 
	C1116.289307,61.993824 1133.762939,61.970467 1151.236694,62.002060 
	C1163.364380,62.023987 1169.958618,73.184776 1164.269409,84.075203 
	C1162.189941,88.055649 1158.850220,90.469444 1154.300171,90.496178 
	C1129.178345,90.643845 1104.055908,90.687943 1078.933594,90.749046 
	C1078.642822,90.749748 1078.351562,90.505043 1077.456665,90.104836 
	C1077.456665,85.093185 1077.456665,79.810158 1077.456787,74.035202 
z"/>
<path fill="#FDFDFE" opacity="1.000000" stroke="none" 
	d="
M758.442139,216.291962 
	C759.066162,216.691620 759.388672,216.854553 759.574707,217.114960 
	C762.233826,220.838181 763.247986,243.758270 760.394836,247.184067 
	C759.005005,248.852829 756.233765,250.170776 754.044678,250.237793 
	C743.735352,250.553558 733.408630,250.514542 723.093201,250.325958 
	C717.934509,250.231659 715.778931,247.995590 715.649353,242.917419 
	C715.475281,236.098251 715.604187,229.271042 715.624451,222.447357 
	C715.635986,218.582916 717.601746,215.474243 721.311340,215.441513 
	C733.563721,215.333420 745.821472,215.833755 758.442139,216.291962 
z"/>
</svg>